<svg width="845" height="453" xmlns="http://www.w3.org/2000/svg" overflow="hidden"><defs><clipPath id="a"><path d="M37 82h845v453H37z"/></clipPath></defs><g clip-path="url(#a)" transform="translate(-37 -82)"><path d="M432.216 128.896c-55.62 0-105.119 26.188-136.849 66.902a113.769 113.769 0 0 0-36.994-6.172c-62.953 0-113.987 51.03-113.987 113.979 0 62.95 51.034 113.98 113.987 113.98 13.568 0 26.578-2.383 38.648-6.732 31.783 39.521 80.53 64.822 135.195 64.822 95.766 0 173.4-77.63 173.4-173.39 0-95.76-77.634-173.389-173.4-173.389z" fill="#E4E4E4"/><path d="M348.923 355.094h-.654c-28.987 0-52.487-23.497-52.487-52.481v-.654c0-28.986 23.5-52.483 52.486-52.483h.654c28.987 0 52.486 23.497 52.486 52.482v.654c0 28.985-23.5 52.482-52.485 52.482z" fill="#FFC000"/><path d="M249.766 302.285c0 8.681-7.039 15.719-15.72 15.719-8.682 0-15.72-7.038-15.72-15.719s7.038-15.718 15.72-15.718c8.681 0 15.72 7.037 15.72 15.718z" fill="#737373"/><path d="M424.79 300.107h116.175v4.356H424.79zM427.048 330.392l114.41-20.167.757 4.29-114.41 20.167zM434.557 359.824l109.171-39.73 1.49 4.094-109.172 39.73zM447.045 387.54l100.62-58.072 2.178 3.773-100.62 58.073zM464.187 412.619l88.99-74.685 2.801 3.337-88.99 74.684zM485.389 434.38l74.69-88.985 3.337 2.801-74.69 88.986zM510.044 452.087l58.076-100.613 3.774 2.178-58.076 100.613zM537.394 465.325l39.756-109.151 4.092 1.49-39.755 109.152zM566.637 473.515l20.169-114.402 4.29.756-20.167 114.403zM596.875 360.369h4.356v116.168h-4.356zM607.011 359.837l4.291-.757 20.18 114.403-4.291.757zM616.868 357.624l4.093-1.49L660.694 465.3l-4.094 1.49zM626.193 353.67l3.772-2.178 58.088 100.601-3.773 2.178zM634.698 348.146l3.337-2.8 74.678 88.986-3.337 2.8zM642.138 341.325l2.8-3.336 88.992 74.673-2.8 3.337zM648.259 333.235l2.178-3.774 100.61 58.085-2.18 3.773zM652.88 324.18l1.49-4.094 109.171 39.73-1.49 4.093zM655.846 314.505l.756-4.29 114.412 20.168-.757 4.29zM657.141 300.107H773.32v4.356H657.14zM655.857 290.074l114.412-20.167.756 4.29-114.411 20.167zM652.916 280.385l109.17-39.741 1.491 4.094-109.17 39.741zM648.252 271.35l100.61-58.085 2.178 3.772-100.61 58.085zM642.18 263.268l89.005-74.674 2.8 3.338-89.003 74.674zM634.746 256.39l74.69-88.984 3.336 2.8-74.69 88.985zM626.213 250.878l58.076-100.614 3.774 2.178-58.077 100.614zM616.884 246.969l39.732-109.163 4.093 1.49-39.732 109.163zM606.989 244.712l20.168-114.403 4.29.757-20.168 114.403zM596.875 128.032h4.356v116.169h-4.356zM566.63 131.08l4.29-.756 20.168 114.403-4.29.756zM537.402 139.3l4.093-1.49 39.733 109.163-4.094 1.49zM510.02 152.459l3.773-2.179 58.088 100.602-3.773 2.179zM485.35 170.183l3.337-2.8 74.677 88.985-3.336 2.8zM464.15 191.968l2.801-3.336 88.99 74.672-2.8 3.337zM447.037 217.057l2.179-3.772 100.608 58.084-2.178 3.773zM434.545 244.724l1.49-4.093 109.171 39.73-1.49 4.093zM427.032 274.159l.757-4.29 114.41 20.167-.757 4.29z" fill="#C6C6C6"/></g></svg>